<?xml version="1.0" encoding="UTF-8"?>
<svg width="55px" height="55px" viewBox="0 0 55 55" version="1.1" xmlns="http://www.w3.org/2000/svg" xmlns:xlink="http://www.w3.org/1999/xlink">
    <!-- Generator: Sketch 50.2 (55047) - http://www.bohemiancoding.com/sketch -->
    <title>Group 10</title>
    <desc>Created with Sketch.</desc>
    <defs></defs>
    <g id="Symbols" stroke="none" stroke-width="1" fill="none" fill-rule="evenodd">
        <g id="Barra-strumenti" transform="translate(-1149.000000, -13.000000)">
            <g id="Group-10" transform="translate(1149.000000, 13.000000)">
                <g id="Group-2-Copy-3" fill="#4E4E4E">
                    <circle id="Oval-6-Copy" cx="27.5" cy="27.5" r="27.5"></circle>
                </g>
                <g id="online-shopping-cart-copy" opacity="0.4" transform="translate(11.000000, 14.000000)" fill="#FFFFFF" fill-rule="nonzero">
                    <path d="M1.21956522,2.45570217 L4.71562826,2.45570217 L9.69554348,20.4645913 C9.83780217,20.9930935 10.3256283,21.358963 10.8744326,21.358963 L26.1799761,21.358963 C26.6678022,21.358963 27.09465,21.0743739 27.297887,20.6272239 L32.8672109,7.82178913 C33.0298435,7.43561739 32.9891674,7.00876957 32.7655565,6.66320217 C32.5419457,6.31763478 32.1557739,6.11439783 31.7492283,6.11439783 L14.8380196,6.11439783 C14.1672587,6.11439783 13.6184543,6.66320217 13.6184543,7.33396304 C13.6184543,8.00472391 14.1672587,8.55352826 14.8380196,8.55352826 L29.8793478,8.55352826 L25.3669565,18.9198326 L11.7891065,18.9198326 L6.80926304,0.910943478 C6.66700435,0.382441304 6.17917826,0.0165717391 5.63037391,0.0165717391 L1.21956522,0.0165717391 C0.548804348,0.0165717391 0,0.565376087 0,1.23613696 C0,1.90689783 0.548804348,2.45570217 1.21956522,2.45570217 Z" id="Shape"></path>
                    <path d="M9.71584565,29.9365957 C11.2403022,29.9365957 12.4801696,28.6967283 12.4801696,27.1722717 C12.4801696,25.6478152 11.2403022,24.4079478 9.71584565,24.4079478 C8.19138913,24.4079478 6.95152174,25.6477435 6.95152174,27.1722 C6.95152174,28.6966565 8.19138913,29.9365957 9.71584565,29.9365957 Z" id="Shape"></path>
                    <path d="M26.9930674,29.9365957 C27.0540457,29.9365957 27.1353261,29.9365957 27.1963043,29.9365957 C27.9280435,29.8756174 28.5988043,29.5504239 29.0866304,28.9812457 C29.5744565,28.4324413 29.7980674,27.7210043 29.7573913,26.968963 C29.655737,25.4648087 28.3345891,24.3062217 26.8101326,24.4078761 C25.2856761,24.5095304 24.1473913,25.8510522 24.2490457,27.3551348 C24.3506283,28.7983109 25.5498913,29.9365957 26.9930674,29.9365957 Z" id="Shape"></path>
                </g>
            </g>
        </g>
    </g>
</svg>